<svg width="58" height="70" viewBox="0 0 58 70" fill="none" xmlns="http://www.w3.org/2000/svg">
<g filter="url(#filter0_d_0_354)">
<path d="M19.1897 20.4314L19.1841 20.4342L19.1758 20.4397L19.1897 20.4314ZM46.8398 19.9148C46.6466 19.7294 46.4322 19.5671 46.2009 19.4313C45.8736 19.2397 45.5102 19.1168 45.1332 19.0703C44.7562 19.0239 44.3737 19.0548 44.0092 19.1612C43.6447 19.2677 43.306 19.4473 43.0141 19.6891C42.7222 19.9308 42.4833 20.2295 42.312 20.5668C41.3553 22.4424 40.0357 24.1117 38.4287 25.4788C38.6751 24.1017 38.7996 22.7059 38.8009 21.3072C38.8062 17.0531 37.6779 12.8735 35.531 9.19407C33.384 5.51464 30.2951 2.46672 26.5786 0.360657C26.1691 0.129225 25.7071 0.00517135 25.2361 0.000158219C24.7651 -0.00485491 24.3005 0.109337 23.8861 0.331999C23.4716 0.554661 23.121 0.87848 22.867 1.27301C22.613 1.66755 22.464 2.11984 22.4342 2.58736C22.2786 5.20665 21.5901 7.76727 20.4102 10.1141C19.2304 12.4609 17.5838 14.5451 15.5702 16.2405L14.9313 16.7571C12.8247 18.1667 10.9601 19.9046 9.40909 21.9039C6.99873 24.9238 5.32904 28.4608 4.53244 32.2342C3.73585 36.0076 3.83426 39.9138 4.81988 43.6428C5.8055 47.3718 7.65121 50.8212 10.2106 53.7172C12.77 56.6133 15.9727 58.8764 19.5647 60.3271C19.9864 60.4978 20.4439 60.5628 20.8968 60.5163C21.3497 60.4699 21.7842 60.3134 22.162 60.0607C22.5399 59.8081 22.8494 59.4669 23.0635 59.0672C23.2776 58.6675 23.3896 58.2217 23.3897 57.7688C23.3874 57.4762 23.3406 57.1856 23.2508 56.9069C22.6293 54.5836 22.4503 52.1652 22.723 49.7764C25.3522 54.7066 29.5718 58.6143 34.7037 60.8713C35.3298 61.1497 36.0375 61.1871 36.6898 60.9763C40.7439 59.6747 44.3961 57.3637 47.2993 54.263C50.2026 51.1623 52.2605 47.3749 53.2775 43.2605C54.2946 39.1461 54.237 34.8413 53.1102 30.7553C51.9835 26.6692 49.825 22.9376 46.8398 19.9148ZM35.9926 55.3625C33.5711 54.1423 31.435 52.4288 29.7232 50.3336C28.0113 48.2384 26.7619 45.8083 26.0564 43.2013C25.8407 42.3234 25.6738 41.4343 25.5564 40.5381C25.4773 39.9674 25.2209 39.4356 24.823 39.017C24.425 38.5984 23.9054 38.314 23.3369 38.2036C23.1621 38.1699 22.9844 38.1532 22.8064 38.1539C22.3183 38.1534 21.8387 38.2809 21.4159 38.5234C20.9932 38.7659 20.6421 39.1149 20.398 39.5352C18.0937 43.4893 16.9352 48.0007 17.0508 52.5695C15.0234 51.0022 13.329 49.0503 12.0658 46.827C10.8026 44.6036 9.99565 42.153 9.69179 39.6171C9.38793 37.0813 9.59319 34.5107 10.2957 32.0543C10.9981 29.598 12.1839 27.3047 13.7841 25.3075C14.9992 23.7379 16.4649 22.3772 18.123 21.2796C18.1956 21.2333 18.2652 21.1825 18.3314 21.1276C18.3314 21.1276 19.1536 20.4508 19.1814 20.4369C23.1403 17.1081 25.9563 12.6337 27.237 7.63752C30.2632 10.4205 32.2808 14.1194 32.9764 18.1599C33.6721 22.2003 33.0069 26.3561 31.0842 29.9819C30.8297 30.4659 30.7252 31.014 30.7838 31.557C30.8425 32.1 31.0616 32.6136 31.4135 33.0328C31.7655 33.452 32.2345 33.7581 32.7612 33.9123C33.288 34.0666 33.8489 34.0621 34.3731 33.8994C38.6279 32.5723 42.3719 29.9807 45.1009 26.4734C46.7418 28.883 47.8146 31.63 48.2395 34.5094C48.6643 37.3889 48.4303 40.3265 47.5547 43.1035C46.6792 45.8804 45.1848 48.425 43.1828 50.5477C41.1809 52.6703 38.7231 54.3161 35.9926 55.3625Z" fill="white"/>
</g>
<defs>
<filter id="filter0_d_0_354" x="0" y="0" width="58" height="69.1111" filterUnits="userSpaceOnUse" color-interpolation-filters="sRGB">
<feFlood flood-opacity="0" result="BackgroundImageFix"/>
<feColorMatrix in="SourceAlpha" type="matrix" values="0 0 0 0 0 0 0 0 0 0 0 0 0 0 0 0 0 0 127 0" result="hardAlpha"/>
<feOffset dy="4"/>
<feGaussianBlur stdDeviation="2"/>
<feComposite in2="hardAlpha" operator="out"/>
<feColorMatrix type="matrix" values="0 0 0 0 0 0 0 0 0 0 0 0 0 0 0 0 0 0 0.25 0"/>
<feBlend mode="normal" in2="BackgroundImageFix" result="effect1_dropShadow_0_354"/>
<feBlend mode="normal" in="SourceGraphic" in2="effect1_dropShadow_0_354" result="shape"/>
</filter>
</defs>
</svg>
