<svg width="24" height="25" viewBox="0 0 24 25" fill="none" xmlns="http://www.w3.org/2000/svg">
<g filter="url(#filter0_d_302_184)">
<path d="M6.28564 2.69531C7.83252 1.14844 9.6958 0.375 11.8755 0.375C14.0552 0.375 15.9067 1.14844 17.4302 2.69531C18.9771 4.21875 19.7505 6.07031 19.7505 8.25C19.7505 10.4297 18.9771 12.293 17.4302 13.8398C15.9067 15.3633 14.0552 16.125 11.8755 16.125C11.0786 16.125 10.3286 16.0195 9.62549 15.8086C10.0474 15.0586 10.3169 14.4961 10.4341 14.1211L10.9966 11.9414C11.3481 12.5977 11.981 12.9258 12.895 12.9258C14.1606 12.9258 15.1802 12.4219 15.9536 11.4141C16.7505 10.4062 17.1489 9.11719 17.1489 7.54688C17.1489 6.32812 16.6802 5.27344 15.7427 4.38281C14.8052 3.46875 13.6099 3.01172 12.1567 3.01172C10.4224 3.01172 9.05127 3.52734 8.04346 4.55859C7.03564 5.56641 6.53174 6.69141 6.53174 7.93359C6.53174 9.50391 7.0708 10.5117 8.14893 10.957C8.35986 11.0508 8.50049 10.9805 8.5708 10.7461C8.5708 10.6992 8.58252 10.5938 8.60596 10.4297C8.65283 10.2656 8.68799 10.1602 8.71143 10.1133C8.7583 9.97266 8.72314 9.83203 8.60596 9.69141C8.25439 9.26953 8.07861 8.75391 8.07861 8.14453C8.07861 7.11328 8.43018 6.23438 9.1333 5.50781C9.85986 4.75781 10.7974 4.38281 11.9458 4.38281C12.9771 4.38281 13.7856 4.66406 14.3716 5.22656C14.9575 5.76562 15.2505 6.48047 15.2505 7.37109C15.2505 8.54297 15.0161 9.53906 14.5474 10.3594C14.0786 11.1562 13.481 11.5547 12.7544 11.5547C12.3325 11.5547 11.9927 11.4141 11.7349 11.1328C11.4771 10.8281 11.395 10.4648 11.4888 10.043C11.5356 9.80859 11.6177 9.49219 11.7349 9.09375C11.8755 8.69531 11.981 8.34375 12.0513 8.03906C12.145 7.73438 12.1919 7.47656 12.1919 7.26562C12.1919 6.9375 12.0981 6.65625 11.9106 6.42188C11.7231 6.1875 11.4653 6.07031 11.1372 6.07031C10.7153 6.07031 10.3521 6.26953 10.0474 6.66797C9.76611 7.04297 9.62549 7.52344 9.62549 8.10938C9.62549 8.32031 9.64893 8.53125 9.6958 8.74219C9.74268 8.95312 9.78955 9.11719 9.83643 9.23438L9.87158 9.375C9.28564 11.8125 8.9458 13.2422 8.85205 13.6641C8.71143 14.2266 8.66455 14.8242 8.71143 15.457C7.30518 14.8242 6.16846 13.8633 5.30127 12.5742C4.43408 11.2852 4.00049 9.84375 4.00049 8.25C4.00049 6.07031 4.76221 4.21875 6.28564 2.69531Z" fill="#A1A1A1"/>
</g>
<defs>
<filter id="filter0_d_302_184" x="0.000488281" y="0.375" width="23.75" height="23.75" filterUnits="userSpaceOnUse" color-interpolation-filters="sRGB">
<feFlood flood-opacity="0" result="BackgroundImageFix"/>
<feColorMatrix in="SourceAlpha" type="matrix" values="0 0 0 0 0 0 0 0 0 0 0 0 0 0 0 0 0 0 127 0" result="hardAlpha"/>
<feOffset dy="4"/>
<feGaussianBlur stdDeviation="2"/>
<feComposite in2="hardAlpha" operator="out"/>
<feColorMatrix type="matrix" values="0 0 0 0 0 0 0 0 0 0 0 0 0 0 0 0 0 0 0.25 0"/>
<feBlend mode="normal" in2="BackgroundImageFix" result="effect1_dropShadow_302_184"/>
<feBlend mode="normal" in="SourceGraphic" in2="effect1_dropShadow_302_184" result="shape"/>
</filter>
</defs>
</svg>
