<svg width="24" height="21" viewBox="0 0 24 21" fill="none" xmlns="http://www.w3.org/2000/svg">
<g filter="url(#filter0_d_0_259)">
<path d="M20 10.18V8C20 5.87827 19.1571 3.84344 17.6569 2.34315C16.1566 0.842855 14.1217 0 12 0C9.87827 0 7.84344 0.842855 6.34315 2.34315C4.84285 3.84344 4 5.87827 4 8V10.18C3.41645 10.3863 2.911 10.7681 2.55294 11.2729C2.19488 11.7778 2.00174 12.3811 2 13V15C2 15.7956 2.31607 16.5587 2.87868 17.1213C3.44129 17.6839 4.20435 18 5 18H8C8.26522 18 8.51957 17.8946 8.70711 17.7071C8.89464 17.5196 9 17.2652 9 17V11C9 10.7348 8.89464 10.4804 8.70711 10.2929C8.51957 10.1054 8.26522 10 8 10H6V8C6 6.4087 6.63214 4.88258 7.75736 3.75736C8.88258 2.63214 10.4087 2 12 2C13.5913 2 15.1174 2.63214 16.2426 3.75736C17.3679 4.88258 18 6.4087 18 8V10H16C15.7348 10 15.4804 10.1054 15.2929 10.2929C15.1054 10.4804 15 10.7348 15 11V17C15 17.2652 15.1054 17.5196 15.2929 17.7071C15.4804 17.8946 15.7348 18 16 18H19C19.7956 18 20.5587 17.6839 21.1213 17.1213C21.6839 16.5587 22 15.7956 22 15V13C21.9983 12.3811 21.8051 11.7778 21.4471 11.2729C21.089 10.7681 20.5835 10.3863 20 10.18ZM7 12V16H5C4.73478 16 4.48043 15.8946 4.29289 15.7071C4.10536 15.5196 4 15.2652 4 15V13C4 12.7348 4.10536 12.4804 4.29289 12.2929C4.48043 12.1054 4.73478 12 5 12H7ZM20 15C20 15.2652 19.8946 15.5196 19.7071 15.7071C19.5196 15.8946 19.2652 16 19 16H17V12H19C19.2652 12 19.5196 12.1054 19.7071 12.2929C19.8946 12.4804 20 12.7348 20 13V15Z" fill="white"/>
</g>
<defs>
<filter id="filter0_d_0_259" x="-2" y="0" width="28" height="26" filterUnits="userSpaceOnUse" color-interpolation-filters="sRGB">
<feFlood flood-opacity="0" result="BackgroundImageFix"/>
<feColorMatrix in="SourceAlpha" type="matrix" values="0 0 0 0 0 0 0 0 0 0 0 0 0 0 0 0 0 0 127 0" result="hardAlpha"/>
<feOffset dy="4"/>
<feGaussianBlur stdDeviation="2"/>
<feComposite in2="hardAlpha" operator="out"/>
<feColorMatrix type="matrix" values="0 0 0 0 0 0 0 0 0 0 0 0 0 0 0 0 0 0 0.25 0"/>
<feBlend mode="normal" in2="BackgroundImageFix" result="effect1_dropShadow_0_259"/>
<feBlend mode="normal" in="SourceGraphic" in2="effect1_dropShadow_0_259" result="shape"/>
</filter>
</defs>
</svg>
